<svg width="301" height="301" viewBox="0 0 301 301" fill="none" xmlns="http://www.w3.org/2000/svg">
<g filter="url(#filter0_i_1022_1067)">
<path d="M43.9997 256.132L256.132 44C314.71 102.579 314.71 197.553 256.132 256.132C197.553 314.711 102.578 314.711 43.9997 256.132Z" fill="#1DA1F2"/>
<path d="M256.198 44.0661L44.0658 256.198C-14.5128 197.619 -14.5128 102.645 44.0658 44.0661C102.644 -14.5126 197.619 -14.5126 256.198 44.0661Z" fill="white"/>
</g>
<path d="M44.4194 44.4196C102.663 -13.8238 197.007 -13.9634 255.424 44.0008L44.0005 255.424C-13.9637 197.008 -13.8241 102.663 44.4194 44.4196ZM256.197 44.774C314.161 103.191 314.022 197.535 255.778 255.778C197.535 314.022 103.19 314.162 44.7737 256.197L256.197 44.774Z" stroke="black" stroke-opacity="0.3"/>
<defs>
<filter id="filter0_i_1022_1067" x="0.131836" y="-3.86792" width="303.934" height="303.934" filterUnits="userSpaceOnUse" color-interpolation-filters="sRGB">
<feFlood flood-opacity="0" result="BackgroundImageFix"/>
<feBlend mode="normal" in="SourceGraphic" in2="BackgroundImageFix" result="shape"/>
<feColorMatrix in="SourceAlpha" type="matrix" values="0 0 0 0 0 0 0 0 0 0 0 0 0 0 0 0 0 0 127 0" result="hardAlpha"/>
<feOffset dx="40" dy="-40"/>
<feGaussianBlur stdDeviation="2"/>
<feComposite in2="hardAlpha" operator="arithmetic" k2="-1" k3="1"/>
<feColorMatrix type="matrix" values="0 0 0 0 0 0 0 0 0 0 0 0 0 0 0 0 0 0 0.25 0"/>
<feBlend mode="normal" in2="shape" result="effect1_innerShadow_1022_1067"/>
</filter>
</defs>
</svg>
